# xmcd
#
# Track frame offsets:
# 150
# 9045
# 28718
# 50866
# 62289
# 92792
# 117055
# 160503
# 203756
# 256286
# 281854
# 294567
#
# Disc length: 4642 seconds
#
# Revision: 1
# Processed by: cddbd v1.5.2PL0 Copyright (c) Steve Scherf et al.
# Submitted via: CedeCatalogueitor 2.6.0.6 http://personales.ya.com/cdcatalogueitor
#
DISCID=9d12200c
DTITLE=Marvin Gaye - Live At London Palladium
DYEAR=1977
DGENRE=
TTITLE0=Intro Theme
TTITLE1=All The Way Round
TTITLE2=Since I Had You
TTITLE3=Come Get To This
TTITLE4=Let's Get It On
TTITLE5=Trouble Man
TTITLE6=Medley I: Ain't That Peculiar/you're A Wonderful One/stubborn Kind Of Fellow/ Pride and Joy/little Darling (I Need You)/I Heard It Through The Grapevine/Hithc Hike/You/Too Busy Thinking About My Baby/How Sweet It Is (To Be Loved By You)
TTITLE7=Medley II: Inner City Blues (Make Me Wanna Holler)/God Is Love/ What's Going On/Save The Children
TTITLE8=Medley III: You're All I Need To Get By/Ain't Nothing Like The Real Thing/Your Precious Love/It Takes Two/Ain't No Mountain High Enough
TTITLE9=Distant Lover
TTITLE10=Closing Theme/I Want You
TTITLE11=Got To Give It Up
EXTD=
EXTT0=
EXTT1=
EXTT2=
EXTT3=
EXTT4=
EXTT5=
EXTT6=
EXTT7=
EXTT8=
EXTT9=
EXTT10=
EXTT11=
PLAYORDER=
